<svg width="256" height="256" viewBox="0 0 256 256" fill="none" xmlns="http://www.w3.org/2000/svg">
<circle cx="128" cy="128" r="128" fill="black"/>
<path d="M80.1632 191.955L83.2699 191.038C84.5552 190.659 85.9331 190.757 87.1524 191.315C88.3718 191.873 89.3514 192.853 89.9129 194.078L93.5143 201.933C93.8315 202.625 94.2848 203.244 94.8467 203.753C95.4086 204.263 96.0674 204.653 96.7832 204.898C97.499 205.144 98.257 205.241 99.0111 205.183C99.7652 205.125 100.5 204.914 101.17 204.562L107.324 201.327C108.026 200.958 108.797 200.744 109.587 200.698C110.377 200.652 111.168 200.776 111.907 201.061C112.646 201.346 113.317 201.786 113.874 202.351C114.432 202.917 114.863 203.595 115.141 204.342C115.637 205.675 116.617 206.77 117.883 207.406C119.148 208.042 120.606 208.173 121.963 207.771C137.441 203.169 149.663 196.82 158.969 189.211C175.663 175.587 183 157.924 183 138.994V98.1247C183 84.8307 177.754 72.0813 168.417 62.6811C159.08 53.2809 146.417 48 133.212 48C120.008 48 107.345 53.281 98.0081 62.6812C88.6714 72.0814 83.426 84.8308 83.426 98.1247V138.994C83.426 155.404 80.2144 171.111 73.5962 184.045C73.1065 185.024 72.912 186.125 73.0367 187.214C73.1615 188.303 73.6 189.331 74.2981 190.172C74.9963 191.013 75.9237 191.63 76.9659 191.947C78.0081 192.263 79.1195 192.266 80.1632 191.955V191.955Z" fill="#EAEAF0"/>
<path d="M153.168 114.502C148.588 114.502 144.876 109.311 144.876 102.908C144.876 96.5049 148.588 91.3141 153.168 91.3141C157.747 91.3141 161.459 96.5049 161.459 102.908C161.459 109.311 157.747 114.502 153.168 114.502Z" fill="black"/>
<path d="M113.363 114.502C108.784 114.502 105.072 109.311 105.072 102.908C105.072 96.5049 108.784 91.3141 113.363 91.3141C117.943 91.3141 121.655 96.5049 121.655 102.908C121.655 109.311 117.943 114.502 113.363 114.502Z" fill="black"/>
</svg>
